<svg xmlns="http://www.w3.org/2000/svg" xmlns:xlink="http://www.w3.org/1999/xlink" width="240" zoomAndPan="magnify" viewBox="0 0 180 179.999997" height="240" preserveAspectRatio="xMidYMid meet" version="1.0"><defs><g/><clipPath id="32b53abab5"><path d="M 9.753906 9.753906 L 170.253906 9.753906 L 170.253906 170.253906 L 9.753906 170.253906 Z M 9.753906 9.753906 " clip-rule="nonzero"/></clipPath></defs><g clip-path="url(#32b53abab5)"><path fill="#553566" d="M 24.867188 9.753906 L 155.144531 9.753906 C 156.136719 9.753906 157.117188 9.851562 158.089844 10.046875 C 159.0625 10.238281 160.007812 10.527344 160.925781 10.90625 C 161.84375 11.285156 162.714844 11.75 163.539062 12.300781 C 164.363281 12.855469 165.128906 13.480469 165.828125 14.183594 C 166.53125 14.882812 167.15625 15.648438 167.707031 16.472656 C 168.257812 17.296875 168.726562 18.167969 169.105469 19.085938 C 169.484375 20 169.769531 20.945312 169.964844 21.917969 C 170.160156 22.894531 170.253906 23.875 170.253906 24.867188 L 170.253906 155.144531 C 170.253906 156.136719 170.160156 157.117188 169.964844 158.089844 C 169.769531 159.0625 169.484375 160.007812 169.105469 160.925781 C 168.726562 161.84375 168.257812 162.714844 167.707031 163.539062 C 167.15625 164.363281 166.53125 165.128906 165.828125 165.828125 C 165.128906 166.53125 164.363281 167.15625 163.539062 167.707031 C 162.714844 168.257812 161.84375 168.726562 160.925781 169.105469 C 160.007812 169.484375 159.0625 169.769531 158.089844 169.964844 C 157.117188 170.160156 156.136719 170.253906 155.144531 170.253906 L 24.867188 170.253906 C 23.875 170.253906 22.894531 170.160156 21.917969 169.964844 C 20.945312 169.769531 20 169.484375 19.085938 169.105469 C 18.167969 168.726562 17.296875 168.257812 16.472656 167.707031 C 15.648438 167.15625 14.882812 166.53125 14.183594 165.828125 C 13.480469 165.128906 12.855469 164.363281 12.300781 163.539062 C 11.75 162.714844 11.285156 161.84375 10.90625 160.925781 C 10.527344 160.007812 10.238281 159.0625 10.046875 158.089844 C 9.851562 157.117188 9.753906 156.136719 9.753906 155.144531 L 9.753906 24.867188 C 9.753906 23.875 9.851562 22.894531 10.046875 21.917969 C 10.238281 20.945312 10.527344 20 10.90625 19.085938 C 11.285156 18.167969 11.75 17.296875 12.300781 16.472656 C 12.855469 15.648438 13.480469 14.882812 14.183594 14.183594 C 14.882812 13.480469 15.648438 12.855469 16.472656 12.300781 C 17.296875 11.75 18.167969 11.285156 19.085938 10.90625 C 20 10.527344 20.945312 10.238281 21.917969 10.046875 C 22.894531 9.851562 23.875 9.753906 24.867188 9.753906 Z M 24.867188 9.753906 " fill-opacity="1" fill-rule="nonzero"/></g><path fill="#faefe6" d="M 129.984375 36.660156 C 129.984375 30.894531 125.304688 26.214844 119.539062 26.214844 C 113.769531 26.214844 109.09375 30.894531 109.09375 36.660156 C 109.09375 42.429688 113.769531 47.105469 119.539062 47.105469 L 119.539062 56.066406 L 127.199219 44.742188 C 128.769531 42.265625 129.984375 39.648438 129.984375 36.660156 Z M 129.984375 36.660156 " fill-opacity="1" fill-rule="nonzero"/><path fill="#faefe6" d="M 155.429688 36.660156 C 155.429688 30.894531 150.75 26.214844 144.984375 26.214844 C 139.214844 26.214844 134.539062 30.894531 134.539062 36.660156 C 134.539062 42.429688 139.214844 47.105469 144.984375 47.105469 L 144.984375 56.066406 L 152.644531 44.742188 C 154.214844 42.265625 155.429688 39.648438 155.429688 36.660156 Z M 155.429688 36.660156 " fill-opacity="1" fill-rule="nonzero"/><g fill="#faefe6" fill-opacity="1"><g transform="translate(28.245366, 121.150851)"><g><path d="M 50.09375 10.703125 L 42.078125 -0.09375 C 39.703125 0.382812 37.382812 0.625 35.125 0.625 C 29.238281 0.625 23.84375 -0.738281 18.9375 -3.46875 C 14.039062 -6.207031 10.148438 -10.023438 7.265625 -14.921875 C 4.378906 -19.828125 2.9375 -25.34375 2.9375 -31.46875 C 2.9375 -37.582031 4.378906 -43.078125 7.265625 -47.953125 C 10.148438 -52.828125 14.039062 -56.628906 18.9375 -59.359375 C 23.84375 -62.097656 29.238281 -63.46875 35.125 -63.46875 C 41.007812 -63.46875 46.398438 -62.097656 51.296875 -59.359375 C 56.203125 -56.628906 60.066406 -52.828125 62.890625 -47.953125 C 65.710938 -43.078125 67.125 -37.582031 67.125 -31.46875 C 67.125 -26.113281 66.035156 -21.222656 63.859375 -16.796875 C 61.691406 -12.367188 58.679688 -8.703125 54.828125 -5.796875 L 68.546875 10.703125 Z M 18.546875 -31.46875 C 18.546875 -25.9375 20.046875 -21.519531 23.046875 -18.21875 C 26.046875 -14.925781 30.070312 -13.28125 35.125 -13.28125 C 40.113281 -13.28125 44.109375 -14.941406 47.109375 -18.265625 C 50.109375 -21.597656 51.609375 -26 51.609375 -31.46875 C 51.609375 -36.988281 50.109375 -41.398438 47.109375 -44.703125 C 44.109375 -48.003906 40.113281 -49.65625 35.125 -49.65625 C 30.070312 -49.65625 26.046875 -48.019531 23.046875 -44.75 C 20.046875 -41.476562 18.546875 -37.050781 18.546875 -31.46875 Z M 18.546875 -31.46875 "/></g></g></g></svg>